<?xml version="1.0" encoding="UTF-8" standalone="no"?><svg xmlns="http://www.w3.org/2000/svg" xmlns:xlink="http://www.w3.org/1999/xlink" contentScriptType="application/ecmascript" contentStyleType="text/css" height="399px" preserveAspectRatio="none" style="width:829px;height:399px;background:#808080;" version="1.1" viewBox="0 0 829 399" width="829px" zoomAndPan="magnify"><defs><filter height="300%" id="ft09ry57e0gwx" width="300%" x="-1" y="-1"><feGaussianBlur result="blurOut" stdDeviation="2.0"/><feColorMatrix in="blurOut" result="blurOut2" type="matrix" values="0 0 0 0 0 0 0 0 0 0 0 0 0 0 0 0 0 0 .4 0"/><feOffset dx="4.0" dy="4.0" in="blurOut2" result="blurOut3"/><feBlend in="SourceGraphic" in2="blurOut3" mode="normal"/></filter></defs><g><rect fill="#808080" filter="url(#ft09ry57e0gwx)" height="88.4481" style="stroke: #000000; stroke-width: 2.0;" width="456.5" x="13" y="204.1362"/><line style="stroke: #A80036; stroke-width: 1.0; stroke-dasharray: 5.0,5.0;" x1="98" x2="98" y1="88.784" y2="309.5843"/><line style="stroke: #A80036; stroke-width: 1.0; stroke-dasharray: 5.0,5.0;" x1="394.5" x2="394.5" y1="88.784" y2="309.5843"/><line style="stroke: #A80036; stroke-width: 1.0; stroke-dasharray: 5.0,5.0;" x1="718" x2="718" y1="88.784" y2="309.5843"/><line style="stroke: #A80036; stroke-width: 1.0; stroke-dasharray: 5.0,5.0;" x1="783" x2="783" y1="88.784" y2="309.5843"/><text fill="#000000" font-family="sans-serif" font-size="16" lengthAdjust="spacingAndGlyphs" textLength="144" x="23" y="85.04">External Contractor</text><ellipse cx="98" cy="13" fill="#FEFECE" filter="url(#ft09ry57e0gwx)" rx="8" ry="8" style="stroke: #A80036; stroke-width: 2.0;"/><path d="M98,21 L98,48 M85,29 L111,29 M98,48 L85,63 M98,48 L111,63 " fill="none" filter="url(#ft09ry57e0gwx)" style="stroke: #A80036; stroke-width: 2.0;"/><text fill="#000000" font-family="sans-serif" font-size="16" lengthAdjust="spacingAndGlyphs" textLength="144" x="23" y="323.6243">External Contractor</text><ellipse cx="98" cy="337.3683" fill="#FEFECE" filter="url(#ft09ry57e0gwx)" rx="8" ry="8" style="stroke: #A80036; stroke-width: 2.0;"/><path d="M98,345.3683 L98,372.3683 M85,353.3683 L111,353.3683 M98,372.3683 L85,387.3683 M98,372.3683 L111,387.3683 " fill="none" filter="url(#ft09ry57e0gwx)" style="stroke: #A80036; stroke-width: 2.0;"/><text fill="#000000" font-family="sans-serif" font-size="16" lengthAdjust="spacingAndGlyphs" textLength="123" x="330.5" y="85.04">Project Manager</text><ellipse cx="395" cy="13" fill="#FEFECE" filter="url(#ft09ry57e0gwx)" rx="8" ry="8" style="stroke: #A80036; stroke-width: 2.0;"/><path d="M395,21 L395,48 M382,29 L408,29 M395,48 L382,63 M395,48 L408,63 " fill="none" filter="url(#ft09ry57e0gwx)" style="stroke: #A80036; stroke-width: 2.0;"/><text fill="#000000" font-family="sans-serif" font-size="16" lengthAdjust="spacingAndGlyphs" textLength="123" x="330.5" y="323.6243">Project Manager</text><ellipse cx="395" cy="337.3683" fill="#FEFECE" filter="url(#ft09ry57e0gwx)" rx="8" ry="8" style="stroke: #A80036; stroke-width: 2.0;"/><path d="M395,345.3683 L395,372.3683 M382,353.3683 L408,353.3683 M395,372.3683 L382,387.3683 M395,372.3683 L408,387.3683 " fill="none" filter="url(#ft09ry57e0gwx)" style="stroke: #A80036; stroke-width: 2.0;"/><text fill="#000000" font-family="sans-serif" font-size="16" lengthAdjust="spacingAndGlyphs" textLength="14" x="708" y="85.04">IT</text><ellipse cx="718" cy="13" fill="#FEFECE" filter="url(#ft09ry57e0gwx)" rx="8" ry="8" style="stroke: #A80036; stroke-width: 2.0;"/><path d="M718,21 L718,48 M705,29 L731,29 M718,48 L705,63 M718,48 L731,63 " fill="none" filter="url(#ft09ry57e0gwx)" style="stroke: #A80036; stroke-width: 2.0;"/><text fill="#000000" font-family="sans-serif" font-size="16" lengthAdjust="spacingAndGlyphs" textLength="14" x="708" y="323.6243">IT</text><ellipse cx="718" cy="337.3683" fill="#FEFECE" filter="url(#ft09ry57e0gwx)" rx="8" ry="8" style="stroke: #A80036; stroke-width: 2.0;"/><path d="M718,345.3683 L718,372.3683 M705,353.3683 L731,353.3683 M718,372.3683 L705,387.3683 M718,372.3683 L731,387.3683 " fill="none" filter="url(#ft09ry57e0gwx)" style="stroke: #A80036; stroke-width: 2.0;"/><text fill="#000000" font-family="sans-serif" font-size="16" lengthAdjust="spacingAndGlyphs" textLength="74" x="743" y="85.04">Customer</text><ellipse cx="783" cy="13" fill="#FEFECE" filter="url(#ft09ry57e0gwx)" rx="8" ry="8" style="stroke: #A80036; stroke-width: 2.0;"/><path d="M783,21 L783,48 M770,29 L796,29 M783,48 L770,63 M783,48 L796,63 " fill="none" filter="url(#ft09ry57e0gwx)" style="stroke: #A80036; stroke-width: 2.0;"/><text fill="#000000" font-family="sans-serif" font-size="16" lengthAdjust="spacingAndGlyphs" textLength="74" x="743" y="323.6243">Customer</text><ellipse cx="783" cy="337.3683" fill="#FEFECE" filter="url(#ft09ry57e0gwx)" rx="8" ry="8" style="stroke: #A80036; stroke-width: 2.0;"/><path d="M783,345.3683 L783,372.3683 M770,353.3683 L796,353.3683 M783,372.3683 L770,387.3683 M783,372.3683 L796,387.3683 " fill="none" filter="url(#ft09ry57e0gwx)" style="stroke: #A80036; stroke-width: 2.0;"/><polygon fill="#A80036" points="406,119.5681,396,123.5681,406,127.5681,402,123.5681" style="stroke: #A80036; stroke-width: 1.0;"/><line style="stroke: #A80036; stroke-width: 1.0; stroke-dasharray: 2.0,2.0;" x1="400" x2="717" y1="123.5681" y2="123.5681"/><text fill="#000000" font-family="sans-serif" font-size="16" lengthAdjust="spacingAndGlyphs" textLength="299" x="412" y="117.8241">Issue credential to be a trusted manager</text><polygon fill="#A80036" points="406,152.3521,396,156.3521,406,160.3521,402,156.3521" style="stroke: #A80036; stroke-width: 1.0;"/><line style="stroke: #A80036; stroke-width: 1.0;" x1="400" x2="782" y1="156.3521" y2="156.3521"/><text fill="#000000" font-family="sans-serif" font-size="16" lengthAdjust="spacingAndGlyphs" textLength="148" x="412" y="150.6081">Order a new project</text><polygon fill="#A80036" points="109,185.1362,99,189.1362,109,193.1362,105,189.1362" style="stroke: #A80036; stroke-width: 1.0;"/><line style="stroke: #A80036; stroke-width: 1.0;" x1="103" x2="394" y1="189.1362" y2="189.1362"/><text fill="#000000" font-family="sans-serif" font-size="16" lengthAdjust="spacingAndGlyphs" textLength="130" x="115" y="183.3921">We need support</text><path d="M13,204.1362 L222,204.1362 L222,216.1362 L212,226.1362 L13,226.1362 L13,204.1362 " fill="#EEEEEE" style="stroke: #000000; stroke-width: 1.0;"/><rect fill="none" height="88.4481" style="stroke: #000000; stroke-width: 2.0;" width="456.5" x="13" y="204.1362"/><text fill="#000000" font-family="sans-serif" font-size="16" font-weight="bold" lengthAdjust="spacingAndGlyphs" textLength="164" x="28" y="221.2482">Onboarding Software X</text><polygon fill="#A80036" points="383,247.8002,393,251.8002,383,255.8002,387,251.8002" style="stroke: #A80036; stroke-width: 1.0;"/><line style="stroke: #A80036; stroke-width: 1.0;" x1="98" x2="389" y1="251.8002" y2="251.8002"/><text fill="#000000" font-family="sans-serif" font-size="16" lengthAdjust="spacingAndGlyphs" textLength="273" x="105" y="246.0562">I don't have access to the Dashboard</text><polygon fill="#A80036" points="109,280.5843,99,284.5843,109,288.5843,105,284.5843" style="stroke: #A80036; stroke-width: 1.0;"/><line style="stroke: #A80036; stroke-width: 1.0;" x1="103" x2="394" y1="284.5843" y2="284.5843"/><text fill="#000000" font-family="sans-serif" font-size="16" lengthAdjust="spacingAndGlyphs" textLength="231" x="115" y="278.8403">Okay, here are your credentials</text><!--
@startuml
skinparamlocked backgroundcolor transparent
skinparamlocked backgroundcolor grey
skinparamlocked defaultFontSize 16
actor "External Contractor" as a_ex_employee
actor "Project Manager" as a_company_pm
actor "IT" as a_company_it
actor "Customer" as a_customer

a_company_it - -> a_company_pm: Issue credential to be a trusted manager
a_customer -> a_company_pm: Order a new project
a_company_pm -> a_ex_employee: We need support

group Onboarding Software X
    a_ex_employee -> a_company_pm: I don't have access to the Dashboard
    a_company_pm -> a_ex_employee: Okay, here are your credentials
end

@enduml

PlantUML version 1.2019.09(Mon Aug 26 16:19:51 GMT 2019)
(GPL source distribution)
Java Runtime: OpenJDK Runtime Environment
JVM: OpenJDK 64-Bit Server VM
Java Version: 1.8.0_222-b10
Operating System: Linux
OS Version: 5.3.7-arch1-1-ARCH
Default Encoding: UTF-8
Language: en
Country: US
--></g></svg>