<?xml version="1.0" encoding="UTF-8" standalone="no"?><svg xmlns="http://www.w3.org/2000/svg" xmlns:xlink="http://www.w3.org/1999/xlink" contentScriptType="application/ecmascript" contentStyleType="text/css" height="408px" preserveAspectRatio="none" style="width:606px;height:408px;background:#808080;" version="1.1" viewBox="0 0 606 408" width="606px" zoomAndPan="magnify"><defs><filter height="300%" id="f1m4hza5aum4f5" width="300%" x="-1" y="-1"><feGaussianBlur result="blurOut" stdDeviation="2.0"/><feColorMatrix in="blurOut" result="blurOut2" type="matrix" values="0 0 0 0 0 0 0 0 0 0 0 0 0 0 0 0 0 0 .4 0"/><feOffset dx="4.0" dy="4.0" in="blurOut2" result="blurOut3"/><feBlend in="SourceGraphic" in2="blurOut3" mode="normal"/></filter></defs><g><line style="stroke: #A80036; stroke-width: 1.0; stroke-dasharray: 5.0,5.0;" x1="83" x2="83" y1="88.784" y2="318.4883"/><line style="stroke: #A80036; stroke-width: 1.0; stroke-dasharray: 5.0,5.0;" x1="311.5" x2="311.5" y1="88.784" y2="318.4883"/><line style="stroke: #A80036; stroke-width: 1.0; stroke-dasharray: 5.0,5.0;" x1="531" x2="531" y1="88.784" y2="318.4883"/><text fill="#000000" font-family="sans-serif" font-size="16" lengthAdjust="spacingAndGlyphs" textLength="144" x="8" y="85.04">External Contractor</text><ellipse cx="83" cy="13" fill="#FEFECE" filter="url(#f1m4hza5aum4f5)" rx="8" ry="8" style="stroke: #A80036; stroke-width: 2.0;"/><path d="M83,21 L83,48 M70,29 L96,29 M83,48 L70,63 M83,48 L96,63 " fill="none" filter="url(#f1m4hza5aum4f5)" style="stroke: #A80036; stroke-width: 2.0;"/><text fill="#000000" font-family="sans-serif" font-size="16" lengthAdjust="spacingAndGlyphs" textLength="144" x="8" y="332.5283">External Contractor</text><ellipse cx="83" cy="346.2723" fill="#FEFECE" filter="url(#f1m4hza5aum4f5)" rx="8" ry="8" style="stroke: #A80036; stroke-width: 2.0;"/><path d="M83,354.2723 L83,381.2723 M70,362.2723 L96,362.2723 M83,381.2723 L70,396.2723 M83,381.2723 L96,396.2723 " fill="none" filter="url(#f1m4hza5aum4f5)" style="stroke: #A80036; stroke-width: 2.0;"/><text fill="#000000" font-family="sans-serif" font-size="16" lengthAdjust="spacingAndGlyphs" textLength="83" x="267.5" y="85.04">Application</text><path d="M294,34 C294,24 312,24 312,24 C312,24 330,24 330,34 L330,60 C330,70 312,70 312,70 C312,70 294,70 294,60 L294,34 " fill="#FEFECE" filter="url(#f1m4hza5aum4f5)" style="stroke: #000000; stroke-width: 1.5;"/><path d="M294,34 C294,44 312,44 312,44 C312,44 330,44 330,34 " fill="none" style="stroke: #000000; stroke-width: 1.5;"/><text fill="#000000" font-family="sans-serif" font-size="16" lengthAdjust="spacingAndGlyphs" textLength="83" x="267.5" y="332.5283">Application</text><path d="M294,346.2723 C294,336.2723 312,336.2723 312,336.2723 C312,336.2723 330,336.2723 330,346.2723 L330,372.2723 C330,382.2723 312,382.2723 312,382.2723 C312,382.2723 294,382.2723 294,372.2723 L294,346.2723 " fill="#FEFECE" filter="url(#f1m4hza5aum4f5)" style="stroke: #000000; stroke-width: 1.5;"/><path d="M294,346.2723 C294,356.2723 312,356.2723 312,356.2723 C312,356.2723 330,356.2723 330,346.2723 " fill="none" style="stroke: #000000; stroke-width: 1.5;"/><text fill="#000000" font-family="sans-serif" font-size="16" lengthAdjust="spacingAndGlyphs" textLength="132" x="462" y="85.04">Sovrin Blockchain</text><path d="M513,34 C513,24 531,24 531,24 C531,24 549,24 549,34 L549,60 C549,70 531,70 531,70 C531,70 513,70 513,60 L513,34 " fill="#FEFECE" filter="url(#f1m4hza5aum4f5)" style="stroke: #000000; stroke-width: 1.5;"/><path d="M513,34 C513,44 531,44 531,44 C531,44 549,44 549,34 " fill="none" style="stroke: #000000; stroke-width: 1.5;"/><text fill="#000000" font-family="sans-serif" font-size="16" lengthAdjust="spacingAndGlyphs" textLength="132" x="462" y="332.5283">Sovrin Blockchain</text><path d="M513,346.2723 C513,336.2723 531,336.2723 531,336.2723 C531,336.2723 549,336.2723 549,346.2723 L549,372.2723 C549,382.2723 531,382.2723 531,382.2723 C531,382.2723 513,382.2723 513,372.2723 L513,346.2723 " fill="#FEFECE" filter="url(#f1m4hza5aum4f5)" style="stroke: #000000; stroke-width: 1.5;"/><path d="M513,346.2723 C513,356.2723 531,356.2723 531,356.2723 C531,356.2723 549,356.2723 549,346.2723 " fill="none" style="stroke: #000000; stroke-width: 1.5;"/><polygon fill="#A80036" points="300,119.5681,310,123.5681,300,127.5681,304,123.5681" style="stroke: #A80036; stroke-width: 1.0;"/><line style="stroke: #A80036; stroke-width: 1.0;" x1="83" x2="306" y1="123.5681" y2="123.5681"/><text fill="#000000" font-family="sans-serif" font-size="16" lengthAdjust="spacingAndGlyphs" textLength="139" x="90" y="117.8241">Access application</text><polygon fill="#A80036" points="94,152.3521,84,156.3521,94,160.3521,90,156.3521" style="stroke: #A80036; stroke-width: 1.0;"/><line style="stroke: #A80036; stroke-width: 1.0;" x1="88" x2="311" y1="156.3521" y2="156.3521"/><text fill="#000000" font-family="sans-serif" font-size="16" lengthAdjust="spacingAndGlyphs" textLength="146" x="100" y="150.6081">Request credentials</text><polygon fill="#A80036" points="300,185.1362,310,189.1362,300,193.1362,304,189.1362" style="stroke: #A80036; stroke-width: 1.0;"/><line style="stroke: #A80036; stroke-width: 1.0;" x1="83" x2="306" y1="189.1362" y2="189.1362"/><text fill="#000000" font-family="sans-serif" font-size="16" lengthAdjust="spacingAndGlyphs" textLength="205" x="90" y="183.3921">Confirm credentials request</text><polygon fill="#A80036" points="519,217.9202,529,221.9202,519,225.9202,523,221.9202" style="stroke: #A80036; stroke-width: 1.0;"/><line style="stroke: #A80036; stroke-width: 1.0;" x1="312" x2="525" y1="221.9202" y2="221.9202"/><text fill="#000000" font-family="sans-serif" font-size="16" lengthAdjust="spacingAndGlyphs" textLength="195" x="319" y="216.1762">View public identity details</text><line style="stroke: #A80036; stroke-width: 1.0;" x1="312" x2="354" y1="254.7042" y2="254.7042"/><line style="stroke: #A80036; stroke-width: 1.0;" x1="354" x2="354" y1="254.7042" y2="267.7042"/><line style="stroke: #A80036; stroke-width: 1.0;" x1="313" x2="354" y1="267.7042" y2="267.7042"/><polygon fill="#A80036" points="323,263.7042,313,267.7042,323,271.7042,319,267.7042" style="stroke: #A80036; stroke-width: 1.0;"/><text fill="#000000" font-family="sans-serif" font-size="16" lengthAdjust="spacingAndGlyphs" textLength="128" x="319" y="248.9602">Verify credentials</text><polygon fill="#A80036" points="94,296.4883,84,300.4883,94,304.4883,90,300.4883" style="stroke: #A80036; stroke-width: 1.0;"/><line style="stroke: #A80036; stroke-width: 1.0;" x1="88" x2="311" y1="300.4883" y2="300.4883"/><text fill="#000000" font-family="sans-serif" font-size="16" lengthAdjust="spacingAndGlyphs" textLength="143" x="100" y="294.7443">Grant/deny access</text><!--
@startuml
skinparamlocked backgroundcolor transparent
skinparamlocked backgroundcolor grey
skinparamlocked defaultFontSize 16
actor "External Contractor" as a_ex_employee
database "Application" as a_application
database "Sovrin Blockchain" as a_blockchain

a_ex_employee -> a_application: Access application
a_application -> a_ex_employee: Request credentials
a_ex_employee -> a_application: Confirm credentials request
a_application -> a_blockchain: View public identity details
a_application -> a_application: Verify credentials
a_application -> a_ex_employee: Grant/deny access

@enduml

PlantUML version 1.2019.09(Mon Aug 26 16:19:51 GMT 2019)
(GPL source distribution)
Java Runtime: OpenJDK Runtime Environment
JVM: OpenJDK 64-Bit Server VM
Java Version: 1.8.0_222-b10
Operating System: Linux
OS Version: 5.3.7-arch1-1-ARCH
Default Encoding: UTF-8
Language: en
Country: US
--></g></svg>