<?xml version="1.0" encoding="UTF-8" standalone="no"?><svg xmlns="http://www.w3.org/2000/svg" xmlns:xlink="http://www.w3.org/1999/xlink" contentScriptType="application/ecmascript" contentStyleType="text/css" height="608px" preserveAspectRatio="none" style="width:670px;height:608px;background:#808080;" version="1.1" viewBox="0 0 670 608" width="670px" zoomAndPan="magnify"><defs><filter height="300%" id="ff6fqndge0bcf" width="300%" x="-1" y="-1"><feGaussianBlur result="blurOut" stdDeviation="2.0"/><feColorMatrix in="blurOut" result="blurOut2" type="matrix" values="0 0 0 0 0 0 0 0 0 0 0 0 0 0 0 0 0 0 .4 0"/><feOffset dx="4.0" dy="4.0" in="blurOut2" result="blurOut3"/><feBlend in="SourceGraphic" in2="blurOut3" mode="normal"/></filter></defs><g><rect fill="#808080" filter="url(#ff6fqndge0bcf)" height="121.2322" style="stroke: #000000; stroke-width: 2.0;" width="571" x="13" y="171.3521"/><rect fill="#808080" filter="url(#ff6fqndge0bcf)" height="55.6641" style="stroke: #000000; stroke-width: 2.0;" width="456.5" x="13" y="306.5843"/><rect fill="#808080" filter="url(#ff6fqndge0bcf)" height="55.6641" style="stroke: #000000; stroke-width: 2.0;" width="456.5" x="13" y="376.2484"/><rect fill="#808080" filter="url(#ff6fqndge0bcf)" height="55.6641" style="stroke: #000000; stroke-width: 2.0;" width="456.5" x="13" y="445.9124"/><line style="stroke: #A80036; stroke-width: 1.0; stroke-dasharray: 5.0,5.0;" x1="98" x2="98" y1="88.784" y2="518.5765"/><line style="stroke: #A80036; stroke-width: 1.0; stroke-dasharray: 5.0,5.0;" x1="394.5" x2="394.5" y1="88.784" y2="518.5765"/><line style="stroke: #A80036; stroke-width: 1.0; stroke-dasharray: 5.0,5.0;" x1="559" x2="559" y1="88.784" y2="518.5765"/><line style="stroke: #A80036; stroke-width: 1.0; stroke-dasharray: 5.0,5.0;" x1="624" x2="624" y1="88.784" y2="518.5765"/><text fill="#000000" font-family="sans-serif" font-size="16" lengthAdjust="spacingAndGlyphs" textLength="144" x="23" y="85.04">External Contractor</text><ellipse cx="98" cy="13" fill="#FEFECE" filter="url(#ff6fqndge0bcf)" rx="8" ry="8" style="stroke: #A80036; stroke-width: 2.0;"/><path d="M98,21 L98,48 M85,29 L111,29 M98,48 L85,63 M98,48 L111,63 " fill="none" filter="url(#ff6fqndge0bcf)" style="stroke: #A80036; stroke-width: 2.0;"/><text fill="#000000" font-family="sans-serif" font-size="16" lengthAdjust="spacingAndGlyphs" textLength="144" x="23" y="532.6165">External Contractor</text><ellipse cx="98" cy="546.3606" fill="#FEFECE" filter="url(#ff6fqndge0bcf)" rx="8" ry="8" style="stroke: #A80036; stroke-width: 2.0;"/><path d="M98,554.3606 L98,581.3606 M85,562.3606 L111,562.3606 M98,581.3606 L85,596.3606 M98,581.3606 L111,596.3606 " fill="none" filter="url(#ff6fqndge0bcf)" style="stroke: #A80036; stroke-width: 2.0;"/><text fill="#000000" font-family="sans-serif" font-size="16" lengthAdjust="spacingAndGlyphs" textLength="123" x="330.5" y="85.04">Project Manager</text><ellipse cx="395" cy="13" fill="#FEFECE" filter="url(#ff6fqndge0bcf)" rx="8" ry="8" style="stroke: #A80036; stroke-width: 2.0;"/><path d="M395,21 L395,48 M382,29 L408,29 M395,48 L382,63 M395,48 L408,63 " fill="none" filter="url(#ff6fqndge0bcf)" style="stroke: #A80036; stroke-width: 2.0;"/><text fill="#000000" font-family="sans-serif" font-size="16" lengthAdjust="spacingAndGlyphs" textLength="123" x="330.5" y="532.6165">Project Manager</text><ellipse cx="395" cy="546.3606" fill="#FEFECE" filter="url(#ff6fqndge0bcf)" rx="8" ry="8" style="stroke: #A80036; stroke-width: 2.0;"/><path d="M395,554.3606 L395,581.3606 M382,562.3606 L408,562.3606 M395,581.3606 L382,596.3606 M395,581.3606 L408,596.3606 " fill="none" filter="url(#ff6fqndge0bcf)" style="stroke: #A80036; stroke-width: 2.0;"/><text fill="#000000" font-family="sans-serif" font-size="16" lengthAdjust="spacingAndGlyphs" textLength="14" x="549" y="85.04">IT</text><ellipse cx="559" cy="13" fill="#FEFECE" filter="url(#ff6fqndge0bcf)" rx="8" ry="8" style="stroke: #A80036; stroke-width: 2.0;"/><path d="M559,21 L559,48 M546,29 L572,29 M559,48 L546,63 M559,48 L572,63 " fill="none" filter="url(#ff6fqndge0bcf)" style="stroke: #A80036; stroke-width: 2.0;"/><text fill="#000000" font-family="sans-serif" font-size="16" lengthAdjust="spacingAndGlyphs" textLength="14" x="549" y="532.6165">IT</text><ellipse cx="559" cy="546.3606" fill="#FEFECE" filter="url(#ff6fqndge0bcf)" rx="8" ry="8" style="stroke: #A80036; stroke-width: 2.0;"/><path d="M559,554.3606 L559,581.3606 M546,562.3606 L572,562.3606 M559,581.3606 L546,596.3606 M559,581.3606 L572,596.3606 " fill="none" filter="url(#ff6fqndge0bcf)" style="stroke: #A80036; stroke-width: 2.0;"/><text fill="#000000" font-family="sans-serif" font-size="16" lengthAdjust="spacingAndGlyphs" textLength="74" x="584" y="85.04">Customer</text><ellipse cx="624" cy="13" fill="#FEFECE" filter="url(#ff6fqndge0bcf)" rx="8" ry="8" style="stroke: #A80036; stroke-width: 2.0;"/><path d="M624,21 L624,48 M611,29 L637,29 M624,48 L611,63 M624,48 L637,63 " fill="none" filter="url(#ff6fqndge0bcf)" style="stroke: #A80036; stroke-width: 2.0;"/><text fill="#000000" font-family="sans-serif" font-size="16" lengthAdjust="spacingAndGlyphs" textLength="74" x="584" y="532.6165">Customer</text><ellipse cx="624" cy="546.3606" fill="#FEFECE" filter="url(#ff6fqndge0bcf)" rx="8" ry="8" style="stroke: #A80036; stroke-width: 2.0;"/><path d="M624,554.3606 L624,581.3606 M611,562.3606 L637,562.3606 M624,581.3606 L611,596.3606 M624,581.3606 L637,596.3606 " fill="none" filter="url(#ff6fqndge0bcf)" style="stroke: #A80036; stroke-width: 2.0;"/><polygon fill="#A80036" points="406,119.5681,396,123.5681,406,127.5681,402,123.5681" style="stroke: #A80036; stroke-width: 1.0;"/><line style="stroke: #A80036; stroke-width: 1.0;" x1="400" x2="623" y1="123.5681" y2="123.5681"/><text fill="#000000" font-family="sans-serif" font-size="16" lengthAdjust="spacingAndGlyphs" textLength="148" x="412" y="117.8241">Order a new project</text><polygon fill="#A80036" points="109,152.3521,99,156.3521,109,160.3521,105,156.3521" style="stroke: #A80036; stroke-width: 1.0;"/><line style="stroke: #A80036; stroke-width: 1.0;" x1="103" x2="394" y1="156.3521" y2="156.3521"/><text fill="#000000" font-family="sans-serif" font-size="16" lengthAdjust="spacingAndGlyphs" textLength="130" x="115" y="150.6081">We need support</text><path d="M13,171.3521 L222,171.3521 L222,183.3521 L212,193.3521 L13,193.3521 L13,171.3521 " fill="#EEEEEE" style="stroke: #000000; stroke-width: 1.0;"/><rect fill="none" height="121.2322" style="stroke: #000000; stroke-width: 2.0;" width="571" x="13" y="171.3521"/><text fill="#000000" font-family="sans-serif" font-size="16" font-weight="bold" lengthAdjust="spacingAndGlyphs" textLength="164" x="28" y="188.4641">Onboarding Software X</text><polygon fill="#A80036" points="383,215.0162,393,219.0162,383,223.0162,387,219.0162" style="stroke: #A80036; stroke-width: 1.0;"/><line style="stroke: #A80036; stroke-width: 1.0;" x1="98" x2="389" y1="219.0162" y2="219.0162"/><text fill="#000000" font-family="sans-serif" font-size="16" lengthAdjust="spacingAndGlyphs" textLength="273" x="105" y="213.2722">I don't have access to the Dashboard</text><polygon fill="#A80036" points="547,247.8002,557,251.8002,547,255.8002,551,251.8002" style="stroke: #A80036; stroke-width: 1.0;"/><line style="stroke: #A80036; stroke-width: 1.0;" x1="395" x2="553" y1="251.8002" y2="251.8002"/><text fill="#000000" font-family="sans-serif" font-size="16" lengthAdjust="spacingAndGlyphs" textLength="140" x="402" y="246.0562">Please give access</text><polygon fill="#A80036" points="406,280.5843,396,284.5843,406,288.5843,402,284.5843" style="stroke: #A80036; stroke-width: 1.0;"/><line style="stroke: #A80036; stroke-width: 1.0;" x1="400" x2="558" y1="284.5843" y2="284.5843"/><text fill="#000000" font-family="sans-serif" font-size="16" lengthAdjust="spacingAndGlyphs" textLength="38" x="412" y="278.8403">Okay</text><path d="M13,306.5843 L220,306.5843 L220,318.5843 L210,328.5843 L13,328.5843 L13,306.5843 " fill="#EEEEEE" style="stroke: #000000; stroke-width: 1.0;"/><rect fill="none" height="55.6641" style="stroke: #000000; stroke-width: 2.0;" width="456.5" x="13" y="306.5843"/><text fill="#000000" font-family="sans-serif" font-size="16" font-weight="bold" lengthAdjust="spacingAndGlyphs" textLength="162" x="28" y="323.6963">Onboarding Software Y</text><polygon fill="#A80036" points="383,350.2484,393,354.2484,383,358.2484,387,354.2484" style="stroke: #A80036; stroke-width: 1.0;"/><line style="stroke: #A80036; stroke-width: 1.0;" x1="98" x2="389" y1="354.2484" y2="354.2484"/><text fill="#000000" font-family="sans-serif" font-size="16" lengthAdjust="spacingAndGlyphs" textLength="174" x="105" y="348.5043">I don't have access to Y</text><path d="M13,376.2484 L218,376.2484 L218,388.2484 L208,398.2484 L13,398.2484 L13,376.2484 " fill="#EEEEEE" style="stroke: #000000; stroke-width: 1.0;"/><rect fill="none" height="55.6641" style="stroke: #000000; stroke-width: 2.0;" width="456.5" x="13" y="376.2484"/><text fill="#000000" font-family="sans-serif" font-size="16" font-weight="bold" lengthAdjust="spacingAndGlyphs" textLength="160" x="28" y="393.3604">Onboarding Software ..</text><polygon fill="#A80036" points="383,419.9124,393,423.9124,383,427.9124,387,423.9124" style="stroke: #A80036; stroke-width: 1.0;"/><line style="stroke: #A80036; stroke-width: 1.0;" x1="98" x2="389" y1="423.9124" y2="423.9124"/><text fill="#000000" font-family="sans-serif" font-size="16" lengthAdjust="spacingAndGlyphs" textLength="170" x="105" y="418.1684">I don't have access to ..</text><path d="M13,445.9124 L220,445.9124 L220,457.9124 L210,467.9124 L13,467.9124 L13,445.9124 " fill="#EEEEEE" style="stroke: #000000; stroke-width: 1.0;"/><rect fill="none" height="55.6641" style="stroke: #000000; stroke-width: 2.0;" width="456.5" x="13" y="445.9124"/><text fill="#000000" font-family="sans-serif" font-size="16" font-weight="bold" lengthAdjust="spacingAndGlyphs" textLength="162" x="28" y="463.0245">Onboarding Software Z</text><polygon fill="#A80036" points="383,489.5765,393,493.5765,383,497.5765,387,493.5765" style="stroke: #A80036; stroke-width: 1.0;"/><line style="stroke: #A80036; stroke-width: 1.0;" x1="98" x2="389" y1="493.5765" y2="493.5765"/><text fill="#000000" font-family="sans-serif" font-size="16" lengthAdjust="spacingAndGlyphs" textLength="174" x="105" y="487.8325">I don't have access to Z</text><!--
@startuml
skinparamlocked backgroundcolor transparent
skinparamlocked backgroundcolor grey
skinparamlocked defaultFontSize 16
actor "External Contractor" as a_ex_employee
actor "Project Manager" as a_company_pm
actor "IT" as a_company_it
actor "Customer" as a_customer

a_customer -> a_company_pm: Order a new project
a_company_pm -> a_ex_employee: We need support

group Onboarding Software X
    a_ex_employee -> a_company_pm: I don't have access to the Dashboard
    a_company_pm -> a_company_it: Please give access
    a_company_it -> a_company_pm: Okay
end

group Onboarding Software Y
    a_ex_employee -> a_company_pm: I don't have access to Y
end

group Onboarding Software ..
    a_ex_employee -> a_company_pm: I don't have access to ..
end

group Onboarding Software Z
    a_ex_employee -> a_company_pm: I don't have access to Z
end


@enduml

PlantUML version 1.2019.09(Mon Aug 26 16:19:51 GMT 2019)
(GPL source distribution)
Java Runtime: OpenJDK Runtime Environment
JVM: OpenJDK 64-Bit Server VM
Java Version: 1.8.0_222-b10
Operating System: Linux
OS Version: 5.3.7-arch1-1-ARCH
Default Encoding: UTF-8
Language: en
Country: US
--></g></svg>